<?xml version="1.0" encoding="UTF-8" standalone="no"?>
<!-- Created with Inkscape (http://www.inkscape.org/) -->

<svg
   xmlns:dc="http://purl.org/dc/elements/1.1/"
   xmlns:cc="http://creativecommons.org/ns#"
   xmlns:rdf="http://www.w3.org/1999/02/22-rdf-syntax-ns#"
   xmlns:svg="http://www.w3.org/2000/svg"
   xmlns="http://www.w3.org/2000/svg"
   xmlns:sodipodi="http://sodipodi.sourceforge.net/DTD/sodipodi-0.dtd"
   xmlns:inkscape="http://www.inkscape.org/namespaces/inkscape"
   id="svg3012"
   version="1.1"
   inkscape:version="0.91 r13725"
   width="209.69731"
   height="66"
   xml:space="preserve"
   sodipodi:docname="logo-horizontal.svg"><metadata
     id="metadata3018"><rdf:RDF><cc:Work
         rdf:about=""><dc:format>image/svg+xml</dc:format><dc:type
           rdf:resource="http://purl.org/dc/dcmitype/StillImage" /><dc:title /></cc:Work></rdf:RDF></metadata><defs
     id="defs3016"><clipPath
       clipPathUnits="userSpaceOnUse"
       id="clipPath3026"><path
         d="M 0,314 410,314 410,0 0,0 0,314 Z"
         id="path3028"
         inkscape:connector-curvature="0" /></clipPath></defs><sodipodi:namedview
     pagecolor="#ffffff"
     bordercolor="#666666"
     borderopacity="1"
     objecttolerance="10"
     gridtolerance="10"
     guidetolerance="10"
     inkscape:pageopacity="0"
     inkscape:pageshadow="2"
     inkscape:window-width="1311"
     inkscape:window-height="809"
     id="namedview3014"
     showgrid="false"
     fit-margin-top="8"
     fit-margin-left="0"
     fit-margin-right="0"
     fit-margin-bottom="8"
     showborder="true"
     inkscape:zoom="5.593777"
     inkscape:cx="119.15026"
     inkscape:cy="33"
     inkscape:window-x="0"
     inkscape:window-y="0"
     inkscape:window-maximized="0"
     inkscape:current-layer="g3020"
     showguides="true"
     inkscape:guide-bbox="true" /><g
     id="g3020"
     inkscape:groupmode="layer"
     inkscape:label="logo_radiokit"
     transform="matrix(1.25,0,0,-1.25,-155.51432,168.73552)"><g
       id="g3022"
       style="fill:#006c90;fill-opacity:1"
       transform="matrix(0.22262047,0,0,0.22262047,109.15525,73.095454)"><g
         id="g3024"
         clip-path="url(#clipPath3026)"
         style="fill:#006c90;fill-opacity:1"><g
           id="g3030"
           transform="translate(185.7407,77.5508)"
           style="fill:#006c90;fill-opacity:1"><path
             d="m 0,0 c -0.398,-1.495 -1.039,-4.812 -1.602,-7.881 9.528,0.009 19.48,0.022 29.445,0.034 l -0.079,0.636 C 27.458,-5.225 26.961,-2.862 26.216,0 24.394,7.003 19.433,13.104 13.112,13.104 6.788,13.104 1.862,6.996 0,0"
             style="fill:#006c90;fill-opacity:1;fill-rule:nonzero;stroke:none"
             id="path3032"
             inkscape:connector-curvature="0" /></g><g
           id="g3034"
           transform="translate(204.9424,108.2588)"
           style="fill:#006c90;fill-opacity:1"><path
             d="m 0,0 c -1.152,4.6 -2.734,8.83 -6.09,8.83 -3.358,0 -5.019,-4.349 -6.059,-8.83 -0.758,-3.271 2.701,-6.104 6.059,-6.104 3.356,0 6.908,2.849 6.09,6.104"
             style="fill:#006c90;fill-opacity:1;fill-rule:nonzero;stroke:none"
             id="path3036"
             inkscape:connector-curvature="0" /></g><g
           id="g3038"
           transform="translate(229.5811,100.0156)"
           style="fill:#006c90;fill-opacity:1"><path
             d="m 0,0 -3.58,9.959 c 13.296,8.833 22.123,23.89 22.123,41.02 0,27.168 -22.108,49.276 -49.277,49.276 -27.173,0 -49.28,-22.108 -49.28,-49.276 0,-17.166 8.863,-32.25 22.207,-41.075 l -3.578,-9.956 c -17.31,10.424 -28.913,29.351 -28.913,51.031 0,32.893 26.669,59.558 59.564,59.558 32.894,0 59.561,-26.665 59.561,-59.558 C 28.827,29.335 17.26,10.431 0,0 m -7.902,21.977 -2.273,6.322 -0.049,0.157 c 6.087,5.561 9.926,13.542 9.926,22.437 0,16.809 -13.627,30.436 -30.443,30.436 -16.807,0 -30.433,-13.627 -30.433,-30.436 0,-8.895 3.838,-16.876 9.927,-22.443 l -0.707,-2.266 -1.539,-4.28 c -8.595,6.756 -14.143,17.208 -14.143,28.989 0,20.374 16.523,36.897 36.895,36.897 20.384,0 36.907,-16.523 36.907,-36.897 0,-11.744 -5.515,-22.164 -14.068,-28.916 m 96.374,18.368 c 0.008,0.438 0.034,0.872 0.034,1.312 0,35.463 -25.592,64.928 -59.307,70.989 -13.804,21.985 -38.252,36.61 -66.124,36.61 -41.86,0 -81.786,-34.321 -84.044,-75.784 -23.937,-9.945 -40.082,-31.761 -40.082,-60.487 0,-31.866 26.135,-43.407 48.277,-43.407 1.001,0 22.655,0.026 51.199,0.059 l 0.092,0.246 24.738,69.677 c -4.111,2.171 -6.946,6.441 -6.946,11.419 0,7.159 5.805,12.957 12.962,12.957 7.161,0 12.965,-5.798 12.965,-12.957 0,-4.978 -2.836,-9.248 -6.948,-11.419 L 0.813,-30.294 c 42.911,0.049 81.572,0.095 81.572,0.095 18.513,1.143 33.067,12.821 33.067,31.728 0,16.777 -11.467,33.829 -26.98,38.816"
             style="fill:#006c90;fill-opacity:1;fill-rule:nonzero;stroke:none"
             id="path3040"
             inkscape:connector-curvature="0" /></g></g></g><g
       transform="scale(1,-1)"
       style="font-style:normal;font-variant:normal;font-weight:500;font-stretch:normal;font-size:21.96268463px;line-height:125%;font-family:Futura;-inkscape-font-specification:'Futura Medium';text-align:start;letter-spacing:0px;word-spacing:0px;writing-mode:lr-tb;text-anchor:start;fill:#006c90;fill-opacity:1;stroke:none"
       id="text3810"><path
         d="m 203.17109,-107.42147 -3.6676,0 0,6.31641 -2.06972,0 0,-15.61409 5.16895,0 q 2.6381,0 4.05366,1.20108 1.42629,1.20109 1.42629,3.49601 0,1.45846 -0.79358,2.54158 -0.78285,1.08313 -2.18769,1.61932 l 3.6676,6.62742 0,0.12868 -2.20914,0 -3.38877,-6.31641 z m -3.6676,-1.68367 3.16357,0 q 1.53353,0 2.43434,-0.79357 0.91154,-0.79357 0.91154,-2.12335 0,-1.44773 -0.86864,-2.21986 -0.85792,-0.77212 -2.48796,-0.78285 l -3.15285,0 0,5.91963 z"
         style="font-weight:normal;-inkscape-font-specification:Roboto"
         id="path3411" /><path
         d="m 219.57876,-105.18016 -6.54162,0 -1.46918,4.0751 -2.12335,0 5.96253,-15.61409 1.80162,0 5.97325,15.61409 -2.11262,0 -1.49063,-4.0751 z m -5.91963,-1.69439 5.30836,0 -2.65954,-7.30302 -2.64882,7.30302 z"
         style="font-weight:normal;-inkscape-font-specification:Roboto"
         id="path3413" /><path
         d="m 225.28391,-101.10506 0,-15.61409 4.40755,0 q 2.03755,0 3.60325,0.90081 1.5657,0.90081 2.4129,2.56303 0.85791,1.66221 0.86864,3.81773 l 0,0.99733 q 0,2.20914 -0.85792,3.87135 -0.84719,1.66222 -2.43434,2.55231 -1.57642,0.89009 -3.67832,0.91153 l -4.32176,0 z m 2.059,-13.91971 0,12.23605 2.16624,0 q 2.38072,0 3.69977,-1.47991 1.32977,-1.4799 1.32977,-4.21452 l 0,-0.91153 q 0,-2.65955 -1.2547,-4.12873 -1.24398,-1.47991 -3.53891,-1.50136 l -2.40217,0 z"
         style="font-weight:normal;-inkscape-font-specification:Roboto"
         id="path3415" /><path
         d="m 241.90606,-101.10506 -2.059,0 0,-15.61409 2.059,0 0,15.61409 z"
         style="font-weight:normal;-inkscape-font-specification:Roboto"
         id="path3417" /><path
         d="m 257.71319,-108.40808 q 0,2.29493 -0.77213,4.01077 -0.77213,1.70511 -2.18769,2.60592 -1.41556,0.90081 -3.30298,0.90081 -1.84452,0 -3.27081,-0.90081 -1.42629,-0.91154 -2.21986,-2.58448 -0.78285,-1.68366 -0.8043,-3.8928 l 0,-1.12601 q 0,-2.25204 0.78285,-3.9786 0.78285,-1.72655 2.20914,-2.63809 1.43701,-0.92226 3.28153,-0.92226 1.87669,0 3.30298,0.91153 1.43701,0.90082 2.20914,2.62738 0.77213,1.71583 0.77213,4.00004 l 0,0.9866 z m -2.04828,-1.00805 q 0,-2.77751 -1.11529,-4.25742 -1.1153,-1.49063 -3.12068,-1.49063 -1.95176,0 -3.07778,1.49063 -1.11529,1.47991 -1.14746,4.11801 l 0,1.14746 q 0,2.69172 1.12601,4.23597 1.13674,1.53353 3.12068,1.53353 1.99466,0 3.0885,-1.44774 1.09385,-1.45846 1.12602,-4.17162 l 0,-1.15819 z"
         style="font-weight:normal;-inkscape-font-specification:Roboto"
         id="path3419" /><path
         d="m 265.27358,-107.36785 -1.67294,1.80162 0,4.46117 -3.21719,0 0,-15.61409 3.21719,0 0,7.07782 1.41557,-1.94104 3.97859,-5.13678 3.95714,0 -5.54429,6.9384 5.70515,8.67569 -3.82845,0 -4.01077,-6.26279 z"
         style="font-style:normal;font-variant:normal;font-weight:bold;font-stretch:normal;font-family:Roboto;-inkscape-font-specification:'Roboto Bold'"
         id="path3421" /><path
         d="m 277.74556,-101.10506 -3.21719,0 0,-15.61409 3.21719,0 0,15.61409 z"
         style="font-style:normal;font-variant:normal;font-weight:bold;font-stretch:normal;font-family:Roboto;-inkscape-font-specification:'Roboto Bold'"
         id="path3423" /><path
         d="m 292.1693,-114.11323 -4.78289,0 0,13.00817 -3.21719,0 0,-13.00817 -4.71855,0 0,-2.60592 12.71863,0 0,2.60592 z"
         style="font-style:normal;font-variant:normal;font-weight:bold;font-stretch:normal;font-family:Roboto;-inkscape-font-specification:'Roboto Bold'"
         id="path3425" /></g></g></svg>